# xmcd CD database file
#
# Track frame offsets:
#	150
#	20170
#	40855
#	64492
#	86712
#	116040
#	145080
#	169032
#	194985
#	211475
#
# Disc length: 3096 seconds
#
# Revision: 1
# Processed by: cddbd v1.5PL3 Copyright (c) Steve Scherf et al.
# Submitted via: CDex 1.51
#
DISCID=9d0c160a
DTITLE=Various Artist - Swiss French Connexion
DYEAR=1997
DGENRE=Jazz
TTITLE0=Just Friends
TTITLE1=Lullaby Of The Leaves
TTITLE2=On A Clear Day
TTITLE3=Cotton Tail
TTITLE4=In A Sentimental Mood
TTITLE5=Don't Get Around Much Anymore
TTITLE6=Lester Leaps In
TTITLE7=Robblin's Nest
TTITLE8=Afternoon In Paris
TTITLE9=SFC Boogie
EXTD=YEAR: 1997
EXTT0=
EXTT1=
EXTT2=
EXTT3=
EXTT4=
EXTT5=
EXTT6=
EXTT7=
EXTT8=
EXTT9=
PLAYORDER=
